<svg xmlns="http://www.w3.org/2000/svg" viewBox="0 0 62.35 65.58"><defs><clipPath id="clip-path"><circle class="cls-1" cx="30.62" cy="30.62" r="24.2"/></clipPath><style>.cls-1{fill:#e3c219}</style></defs><g id="图层_2" data-name="图层 2"><g id="图层_1-2" data-name="图层 1"><circle cx="31.73" cy="34.97" r="30.61" fill="#d3a528"/><circle cx="30.62" cy="30.62" r="30.61" fill="#ffd740"/><circle class="cls-1" cx="30.62" cy="30.62" r="24.2"/><g clip-path="url(#clip-path)"><path fill="#d1ab15" d="M33.53 12L58.7 25l-3 19.64-11.79 10.92-14.98-6.31 9.24-9.15-2.64-7.1-6.31-2.02-6.13-5.88 3.74-6.08 4.19-1.08.54-1.92L33.53 12z"/></g><path d="M35.25 37.6a3.9 3.9 0 00-.25-1.46 3.18 3.18 0 00-.8-1.14 6.2 6.2 0 00-1.48-1 15.93 15.93 0 00-2.21-.87c-1.51-.51-2.87-1-4.09-1.57a14.25 14.25 0 01-3.14-1.87 7.47 7.47 0 01-2-2.46 6.92 6.92 0 01-.7-3.23 7 7 0 01.68-3 7.12 7.12 0 011.87-2.37A10 10 0 0126 16.92a13.78 13.78 0 013.75-.76v-4.2h3.7l-.05 4.26a12.32 12.32 0 013.58 1 8.89 8.89 0 012.72 1.92 7.88 7.88 0 011.71 2.75 9.56 9.56 0 01.57 3.55l-6.58-.04a4.83 4.83 0 00-1.1-3.53 4.12 4.12 0 00-3-1.21 5.6 5.6 0 00-1.79.25 3.48 3.48 0 00-1.24.71 2.76 2.76 0 00-.73 1.08 3.72 3.72 0 00-.24 1.35 3.43 3.43 0 00.21 1.31 2.87 2.87 0 00.78 1.1 6.39 6.39 0 001.49 1 21.78 21.78 0 002.31.94c1.48.53 2.84 1.07 4.05 1.62a14.05 14.05 0 013.13 1.89 7.57 7.57 0 012 2.46 7.18 7.18 0 01.69 3.31 7 7 0 01-.7 3.09 6.87 6.87 0 01-1.88 2.35 9.63 9.63 0 01-2.91 1.57 15 15 0 01-3.79.74v3.9h-3.67L29 45.37a17.55 17.55 0 01-3.7-.81 10.16 10.16 0 01-3.15-1.74A8.16 8.16 0 0120 40a9 9 0 01-.78-4l6.66.08a5.7 5.7 0 00.4 2.33 3.77 3.77 0 001.13 1.5 4.29 4.29 0 001.61.81 7.79 7.79 0 001.86.25 6.41 6.41 0 001.9-.24 4 4 0 001.34-.73 2.92 2.92 0 00.88-1.06 3.16 3.16 0 00.25-1.34z" fill="#fff"/></g></g></svg>